<?xml version="1.0" encoding="UTF-8"?>
<svg class="" width="512" height="512" enable-background="new 0 0 512 512" version="1.1" viewBox="0 0 512 512" xmlns="http://www.w3.org/2000/svg">
 <path class="" d="m246.75 0c-8.284 0-15 6.716-15 15 0 8.284 6.716 15 15 15 103.14 0 187.04 83.908 187.04 187.04 0 8.284 6.716 15 15 15s15-6.716 15-15c0-57.975-22.576-112.48-63.57-153.47-40.995-40.994-95.501-63.57-153.47-63.57zm-49.688 49.688c-8.284 0-15 6.716-15 15s6.716 15 15 15c103.14 0 187.04 83.908 187.04 187.04 0 8.284 6.716 15 15 15s15-6.716 15-15c0-57.975-22.576-112.48-63.57-153.47-40.994-40.995-95.5-63.57-153.47-63.57zm-100.22 28.258c-8.284 0-15 6.716-15 15v78.387c-21.017 25.672-33.646 58.464-33.646 94.154v231.51c0 8.284 6.716 15 15 15h267.73c8.284 0 15-6.716 15-15v-231.51c.001-82.085-66.78-148.87-148.87-148.87-31.673 0-61.06 9.95-85.219 26.877v-50.553c0-8.284-6.716-15-15-15zm100.22 102.43c47.617 0 86.357 38.74 86.357 86.357s-38.74 86.357-86.357 86.357c-47.617 0-86.355-38.74-86.355-86.357s38.739-86.357 86.355-86.357zm0 30a56.357 56.357 0 00-56.355 56.357 56.357 56.357 0 0056.355 56.357 56.357 56.357 0 0056.357-56.357 56.357 56.357 0 00-56.357-56.357zm-71.355 172.71h30.166c8.284 0 15 6.716 15 15 0 8.284-6.714 15-14.998 15h-30.168c-8.284 0-15-6.716-15-15 0-8.284 6.716-15 15-15zm112.55 0h30.166c8.284 0 15 6.715 15 15 0 8.284-6.716 15-15 15h-30.166c-8.284 0-15-6.716-15-15 0-8.284 6.716-15 15-15zm-112.55 55.979h30.166c8.285 0 15.002 6.715 15.002 15 0 8.284-6.716 15-15 15h-30.168c-8.284 0-15-6.716-15-15s6.716-15 15-15z"/>
</svg>
